<?xml version="1.0" encoding="utf-8"?>
<!-- Generator: Adobe Illustrator 21.1.0, SVG Export Plug-In . SVG Version: 6.00 Build 0)  -->
<svg version="1.1" id="Calque_1" xmlns="http://www.w3.org/2000/svg" xmlns:xlink="http://www.w3.org/1999/xlink" x="0px" y="0px"
	 viewBox="0 0 640 480" style="enable-background:new 0 0 640 480;" xml:space="preserve">
<g>
	<path d="M385.7,177.3v-9.2h9.2v9.2H385.7z M385.7,274.1v-92.2h9.2v92.2H385.7z"/>
	<path d="M195.1,227.9c0,6.5-1.2,12.6-3.7,18.2c-2.5,5.6-5.8,10.5-10,14.6s-9.1,7.4-14.7,9.8c-5.5,2.4-11.4,3.6-17.7,3.6
		c-7.9,0-14.9-1.7-21.2-5.1c-6.3-3.4-11.5-7.8-15.7-13.4v35h-9.2v-62.7c0-6.4,1.2-12.4,3.6-18.1s5.7-10.5,9.8-14.7
		c4.1-4.1,9-7.4,14.6-9.8s11.6-3.6,18.2-3.6c6.3,0,12.2,1.2,17.7,3.6c5.5,2.4,10.4,5.7,14.7,9.8c4.2,4.1,7.6,9,10,14.7
		C193.9,215.5,195.1,221.5,195.1,227.9z M185.9,227.9c0-5-1-9.8-3-14.3c-2-4.5-4.6-8.4-7.9-11.7c-3.3-3.3-7.2-6-11.7-7.9
		c-4.5-2-9.3-3-14.3-3c-5,0-9.8,1-14.3,3c-4.5,2-8.4,4.6-11.7,7.9c-3.3,3.3-6,7.2-7.9,11.7c-2,4.5-3,9.3-3,14.3c0,5,1,9.8,3,14.3
		c2,4.5,4.6,8.4,7.9,11.7s7.2,6,11.7,7.9c4.5,2,9.2,3,14.3,3c5,0,9.8-1,14.3-3c4.5-2,8.4-4.6,11.7-7.9c3.3-3.3,6-7.2,7.9-11.7
		C184.9,237.7,185.9,233,185.9,227.9z"/>
	<path d="M243.3,264.8c7.9,0,14.8-2.1,20.8-6.3c6-4.2,10.4-9.8,13.3-16.8h10.1c-1.6,4.7-3.8,9-6.7,12.9c-2.9,3.9-6.3,7.3-10.1,10.1
		c-3.9,2.8-8.1,5.1-12.8,6.7c-4.7,1.7-9.5,2.5-14.6,2.5c-6.5,0-12.6-1.2-18.2-3.6c-5.6-2.4-10.5-5.7-14.6-9.8
		c-4.1-4.1-7.4-9-9.8-14.6s-3.6-11.6-3.6-18.2c0-6.4,1.2-12.4,3.6-18.1s5.7-10.5,9.8-14.7c4.1-4.1,9-7.4,14.6-9.8
		c5.6-2.4,11.6-3.6,18.2-3.6c6.4,0,12.4,1.2,18.1,3.6c5.7,2.4,10.5,5.7,14.7,9.8c4.1,4.1,7.4,9,9.8,14.7c2.4,5.7,3.6,11.7,3.6,18.1
		v4.6h-16.6h-66.4c0.7,4.7,2.2,9,4.3,12.9c2.1,3.9,4.9,7.3,8.2,10.1c3.3,2.8,7,5.1,11.2,6.7C234.2,264,238.6,264.8,243.3,264.8z
		 M243.3,191c-4.7,0-9.1,0.8-13.2,2.5c-4.1,1.7-7.8,3.9-11.2,6.7c-3.3,2.8-6.1,6.2-8.2,10.2c-2.2,4-3.6,8.3-4.3,12.8h73.8
		c-0.7-4.5-2.2-8.8-4.3-12.8c-2.2-4-4.9-7.4-8.2-10.2c-3.3-2.8-7.1-5.1-11.2-6.7C252.2,191.9,247.8,191,243.3,191z M255.4,177.5
		h-26.6v-9.4h26.6V177.5z"/>
	<path d="M383.6,227.9c0,6.5-1.2,12.6-3.7,18.2c-2.5,5.6-5.8,10.5-10,14.6s-9.1,7.4-14.7,9.8c-5.5,2.4-11.4,3.6-17.7,3.6
		c-7.9,0-14.9-1.7-21.2-5.1c-6.3-3.4-11.5-7.8-15.7-13.4v35h-9.2v-62.7c0-6.4,1.2-12.4,3.6-18.1c2.4-5.7,5.7-10.5,9.8-14.7
		c4.1-4.1,9-7.4,14.6-9.8s11.6-3.6,18.2-3.6c6.3,0,12.2,1.2,17.7,3.6c5.5,2.4,10.4,5.7,14.7,9.8c4.2,4.1,7.6,9,10,14.7
		C382.4,215.5,383.6,221.5,383.6,227.9z M374.4,227.9c0-5-1-9.8-3-14.3c-2-4.5-4.6-8.4-7.9-11.7c-3.3-3.3-7.2-6-11.7-7.9
		c-4.5-2-9.3-3-14.3-3c-5,0-9.8,1-14.3,3c-4.5,2-8.4,4.6-11.7,7.9c-3.3,3.3-6,7.2-7.9,11.7c-2,4.5-3,9.3-3,14.3c0,5,1,9.8,3,14.3
		c2,4.5,4.6,8.4,7.9,11.7s7.2,6,11.7,7.9c4.5,2,9.2,3,14.3,3c5,0,9.8-1,14.3-3c4.5-2,8.4-4.6,11.7-7.9c3.3-3.3,6-7.2,7.9-11.7
		C373.4,237.7,374.4,233,374.4,227.9z"/>
	<path d="M489.1,227.9c0,6.5-1.2,12.6-3.7,18.2c-2.5,5.6-5.8,10.5-10,14.6s-9.1,7.4-14.7,9.8c-5.5,2.4-11.4,3.6-17.7,3.6
		c-6.5,0-12.6-1.2-18.2-3.6c-5.6-2.4-10.5-5.7-14.6-9.8c-4.1-4.1-7.4-9-9.8-14.6c-2.4-5.6-3.6-11.6-3.6-18.2V168h9.2v32.3h24.9v9.2
		h-24.9v18.4c0,5,1,9.8,3,14.3c2,4.5,4.6,8.4,7.9,11.7s7.2,6,11.7,7.9c4.5,2,9.2,3,14.3,3c5,0,9.8-1,14.3-3c4.5-2,8.4-4.6,11.7-7.9
		s6-7.2,7.9-11.7c2-4.5,3-9.2,3-14.3H489.1z"/>
	<path d="M537.3,264.8c7.9,0,14.8-2.1,20.8-6.3c6-4.2,10.4-9.8,13.3-16.8h10.1c-1.6,4.7-3.8,9-6.7,12.9c-2.9,3.9-6.3,7.3-10.1,10.1
		c-3.9,2.8-8.1,5.1-12.8,6.7c-4.7,1.7-9.5,2.5-14.6,2.5c-6.5,0-12.6-1.2-18.2-3.6c-5.6-2.4-10.5-5.7-14.6-9.8s-7.4-9-9.8-14.6
		c-2.4-5.6-3.6-11.6-3.6-18.2c0-6.4,1.2-12.4,3.6-18.1c2.4-5.7,5.7-10.5,9.8-14.7c4.1-4.1,9-7.4,14.6-9.8s11.6-3.6,18.2-3.6
		c6.4,0,12.4,1.2,18.1,3.6s10.5,5.7,14.7,9.8c4.1,4.1,7.4,9,9.8,14.7s3.6,11.7,3.6,18.1v4.6h-16.6h-66.4c0.7,4.7,2.2,9,4.3,12.9
		c2.1,3.9,4.9,7.3,8.2,10.1c3.3,2.8,7,5.1,11.2,6.7C528.2,264,532.6,264.8,537.3,264.8z M537.3,191c-4.7,0-9.1,0.8-13.2,2.5
		c-4.1,1.7-7.8,3.9-11.2,6.7c-3.3,2.8-6.1,6.2-8.2,10.2c-2.2,4-3.6,8.3-4.3,12.8h73.8c-0.7-4.5-2.2-8.8-4.3-12.8
		c-2.2-4-4.9-7.4-8.2-10.2c-3.3-2.8-7.1-5.1-11.2-6.7C546.2,191.9,541.9,191,537.3,191z"/>
</g>
</svg>
