<svg id="Calque_1" data-name="Calque 1" xmlns="http://www.w3.org/2000/svg" xmlns:xlink="http://www.w3.org/1999/xlink" viewBox="0 0 482.68 125.62"><defs><style>.cls-1{fill:url(#Nouvelle_nuance_de_dégradé_1);}.cls-2{fill:url(#Nouvelle_nuance_de_dégradé_1-2);}.cls-3{fill:url(#Nouvelle_nuance_de_dégradé_1-3);}.cls-4{fill:url(#Nouvelle_nuance_de_dégradé_1-4);}.cls-5{fill:url(#Nouvelle_nuance_de_dégradé_1-5);}.cls-6{fill:url(#Nouvelle_nuance_de_dégradé_1-6);}.cls-7{fill:url(#Nouvelle_nuance_de_dégradé_1-7);}.cls-8{fill:url(#Nouvelle_nuance_de_dégradé_1-8);}.cls-9{fill:url(#Nouvelle_nuance_de_dégradé_1-9);}.cls-10{fill:url(#Nouvelle_nuance_de_dégradé_1-10);}.cls-11{fill:none;stroke:#fff;stroke-miterlimit:10;stroke-width:0.25px;}</style><linearGradient id="Nouvelle_nuance_de_dégradé_1" x1="97.29" y1="236.2" x2="591.93" y2="236.72" gradientUnits="userSpaceOnUse"><stop offset="0" stop-color="#9cf"/><stop offset="0.17" stop-color="#a2c3fe"/><stop offset="0.36" stop-color="#b2b5fd"/><stop offset="0.37" stop-color="#b4b4fd"/><stop offset="0.55" stop-color="#c9aeff"/><stop offset="0.66" stop-color="#d1acff"/><stop offset="0.99" stop-color="#e4d1d2"/></linearGradient><linearGradient id="Nouvelle_nuance_de_dégradé_1-2" x1="97.3" y1="220.88" x2="591.95" y2="221.4" xlink:href="#Nouvelle_nuance_de_dégradé_1"/><linearGradient id="Nouvelle_nuance_de_dégradé_1-3" x1="97.29" y1="236" x2="591.93" y2="236.52" xlink:href="#Nouvelle_nuance_de_dégradé_1"/><linearGradient id="Nouvelle_nuance_de_dégradé_1-4" x1="97.3" y1="220.76" x2="591.94" y2="221.29" xlink:href="#Nouvelle_nuance_de_dégradé_1"/><linearGradient id="Nouvelle_nuance_de_dégradé_1-5" x1="97.3" y1="220.67" x2="591.95" y2="221.19" xlink:href="#Nouvelle_nuance_de_dégradé_1"/><linearGradient id="Nouvelle_nuance_de_dégradé_1-6" x1="97.3" y1="227.46" x2="591.94" y2="227.99" xlink:href="#Nouvelle_nuance_de_dégradé_1"/><linearGradient id="Nouvelle_nuance_de_dégradé_1-7" x1="97.34" y1="188.75" x2="591.98" y2="189.28" xlink:href="#Nouvelle_nuance_de_dégradé_1"/><linearGradient id="Nouvelle_nuance_de_dégradé_1-8" x1="97.26" y1="262.61" x2="591.91" y2="263.14" xlink:href="#Nouvelle_nuance_de_dégradé_1"/><linearGradient id="Nouvelle_nuance_de_dégradé_1-9" x1="1247.83" y1="174.67" x2="1929.93" y2="175.39" gradientTransform="translate(1885.02 -229.27) rotate(156.44)" xlink:href="#Nouvelle_nuance_de_dégradé_1"/><linearGradient id="Nouvelle_nuance_de_dégradé_1-10" x1="-135.21" y1="257.72" x2="544.03" y2="258.45" xlink:href="#Nouvelle_nuance_de_dégradé_1"/></defs><title>pepite blanc</title><path class="cls-1" d="M195.1,227.93a44.64,44.64,0,0,1-3.69,18.16,45.75,45.75,0,0,1-10,14.57,48.61,48.61,0,0,1-14.66,9.77A46.18,46.18,0,0,1,127.79,269a47.79,47.79,0,0,1-15.67-13.37v35H102.9v-62.7a45.71,45.71,0,0,1,46.1-46.1,44,44,0,0,1,17.7,3.6,48.66,48.66,0,0,1,14.66,9.77,45.53,45.53,0,0,1,10,14.66A44.85,44.85,0,0,1,195.1,227.93Zm-9.22,0a35.24,35.24,0,0,0-3-14.29A37.42,37.42,0,0,0,163.29,194a36.09,36.09,0,0,0-28.58,0,37.42,37.42,0,0,0-19.64,19.64,36.09,36.09,0,0,0,0,28.58,37.42,37.42,0,0,0,19.64,19.64,36.09,36.09,0,0,0,28.58,0,37.42,37.42,0,0,0,19.64-19.64A35.22,35.22,0,0,0,185.88,227.93Z" transform="translate(-102.9 -168)"/><path class="cls-2" d="M243.26,264.81a35.65,35.65,0,0,0,20.84-6.27,36.61,36.61,0,0,0,13.27-16.78h10.14a47.92,47.92,0,0,1-6.73,12.91,46.7,46.7,0,0,1-10.14,10.14,49.89,49.89,0,0,1-12.82,6.73A43.2,43.2,0,0,1,243.26,274a46.28,46.28,0,1,1,46.1-46.1v4.61h-83a39.53,39.53,0,0,0,4.33,12.91,35.61,35.61,0,0,0,8.21,10.14,40.22,40.22,0,0,0,11.16,6.73A34.93,34.93,0,0,0,243.26,264.81Zm0-73.76a34.93,34.93,0,0,0-13.18,2.49,40.3,40.3,0,0,0-11.16,6.73,35.24,35.24,0,0,0-8.21,10.23,40.52,40.52,0,0,0-4.33,12.82h73.76a40.6,40.6,0,0,0-4.33-12.82,35.29,35.29,0,0,0-8.21-10.23,40,40,0,0,0-11.25-6.73A35.16,35.16,0,0,0,243.26,191Zm12.13-13.59h-26.6v-9.41h26.6Z" transform="translate(-102.9 -168)"/><path class="cls-3" d="M383.61,227.93a44.64,44.64,0,0,1-3.69,18.16,45.75,45.75,0,0,1-10,14.57,48.61,48.61,0,0,1-14.66,9.77A46.18,46.18,0,0,1,316.31,269a47.79,47.79,0,0,1-15.67-13.37v35h-9.22v-62.7a45.71,45.71,0,0,1,46.1-46.1,44,44,0,0,1,17.7,3.6,48.66,48.66,0,0,1,14.66,9.77,45.53,45.53,0,0,1,10,14.66A44.85,44.85,0,0,1,383.61,227.93Zm-9.22,0a35.24,35.24,0,0,0-3-14.29A37.42,37.42,0,0,0,351.81,194a36.09,36.09,0,0,0-28.58,0,37.42,37.42,0,0,0-19.64,19.64,36.09,36.09,0,0,0,0,28.58,37.42,37.42,0,0,0,19.64,19.64,36.09,36.09,0,0,0,28.58,0,37.42,37.42,0,0,0,19.64-19.64A35.22,35.22,0,0,0,374.39,227.93Z" transform="translate(-102.9 -168)"/><path class="cls-4" d="M385.67,177.32V168.1h9.22v9.22Zm0,96.73V181.83h9.22v92.22Z" transform="translate(-102.9 -168)"/><path class="cls-5" d="M489.15,227.93a44.64,44.64,0,0,1-3.69,18.16,45.75,45.75,0,0,1-10,14.57,48.61,48.61,0,0,1-14.66,9.77A44,44,0,0,1,443,274a45.71,45.71,0,0,1-46.1-46.1V168h9.22v32.27h24.89v9.22H406.17v18.44a35.17,35.17,0,0,0,3,14.29,37.42,37.42,0,0,0,19.64,19.64,36.09,36.09,0,0,0,28.58,0A37.42,37.42,0,0,0,477,242.22a35.22,35.22,0,0,0,3-14.29Z" transform="translate(-102.9 -168)"/><path class="cls-6" d="M537.31,264.81a35.65,35.65,0,0,0,20.84-6.27,36.61,36.61,0,0,0,13.27-16.78h10.14a47.92,47.92,0,0,1-6.73,12.91,46.7,46.7,0,0,1-10.14,10.14,49.89,49.89,0,0,1-12.82,6.73A43.2,43.2,0,0,1,537.31,274a46.28,46.28,0,1,1,46.1-46.1v4.61h-83a39.53,39.53,0,0,0,4.33,12.91A35.61,35.61,0,0,0,513,255.59a40.22,40.22,0,0,0,11.16,6.73A34.93,34.93,0,0,0,537.31,264.81Zm0-73.76a34.93,34.93,0,0,0-13.18,2.49A40.3,40.3,0,0,0,513,200.27a35.24,35.24,0,0,0-8.21,10.23,40.52,40.52,0,0,0-4.33,12.82h73.76a40.6,40.6,0,0,0-4.33-12.82,35.29,35.29,0,0,0-8.21-10.23,40,40,0,0,0-11.25-6.73A35.16,35.16,0,0,0,537.31,191Z" transform="translate(-102.9 -168)"/><path class="cls-7" d="M283.65,189l7.88-6.14c.12.43.23.74.3,1.07.5,2.36,1,4.73,1.5,7.09.4,1.85-.53,3-2.11,3.89-.32.19-1.14-.09-1.51-.41C287.69,192.79,285.75,191,283.65,189Z" transform="translate(-102.9 -168)"/><path class="cls-8" d="M202.65,260.27a20.19,20.19,0,0,1,.75,3.65,2.43,2.43,0,0,1-1.14,2,39.5,39.5,0,0,1-6.9,1.47c-1.88.21-2.47-.57-2.56-2.47-.15-3.07.74-4.41,3.6-5.51,1-.36,1.89-.78,2.86-1.1C201.06,257.71,201.7,258,202.65,260.27Z" transform="translate(-102.9 -168)"/><path class="cls-9" d="M347.83,248.39l8.86-6.62c1.29,1.24,1.9,2.72,1.21,4.18-1.27,2.68-2.72,5.29-5.54,6.33-1.72.64-2.06.44-3-1.39C348.9,250.06,348.38,249.29,347.83,248.39Z" transform="translate(-102.9 -168)"/><path class="cls-10" d="M497,262.3a5.24,5.24,0,0,1-5.47-5.23c-.13-2.68-.53-2.17,2.09-2.46,2.9-.32,3-.2,3.22,2.66C496.94,258.94,496.95,260.62,497,262.3Z" transform="translate(-102.9 -168)"/><path class="cls-11" d="M197.15,230.79A44.64,44.64,0,0,1,193.46,249a45.75,45.75,0,0,1-10,14.57,48.61,48.61,0,0,1-14.66,9.77,46.18,46.18,0,0,1-38.91-1.48,47.79,47.79,0,0,1-15.67-13.37v35h-9.22v-62.7a45.71,45.71,0,0,1,46.1-46.1,44,44,0,0,1,17.7,3.6,48.66,48.66,0,0,1,14.66,9.77,45.53,45.53,0,0,1,10,14.66A44.85,44.85,0,0,1,197.15,230.79Zm-9.22,0a35.24,35.24,0,0,0-3-14.29,37.42,37.42,0,0,0-19.64-19.64,36.09,36.09,0,0,0-28.58,0,37.42,37.42,0,0,0-19.64,19.64,36.09,36.09,0,0,0,0,28.58,37.42,37.42,0,0,0,19.64,19.64,36.09,36.09,0,0,0,28.58,0A37.42,37.42,0,0,0,185,245.09,35.22,35.22,0,0,0,187.93,230.79Z" transform="translate(-102.9 -168)"/><path class="cls-11" d="M245.3,267.67a35.65,35.65,0,0,0,20.84-6.27,36.61,36.61,0,0,0,13.27-16.78h10.14a47.92,47.92,0,0,1-6.73,12.91,46.7,46.7,0,0,1-10.14,10.14,49.89,49.89,0,0,1-12.82,6.73,43.2,43.2,0,0,1-14.57,2.49,46.28,46.28,0,1,1,46.1-46.1v4.61h-83a39.53,39.53,0,0,0,4.33,12.91A35.61,35.61,0,0,0,221,258.45a40.22,40.22,0,0,0,11.16,6.73A34.93,34.93,0,0,0,245.3,267.67Zm0-73.76a34.93,34.93,0,0,0-13.18,2.49A40.3,40.3,0,0,0,221,203.13a35.24,35.24,0,0,0-8.21,10.23,40.52,40.52,0,0,0-4.33,12.82h73.76a40.6,40.6,0,0,0-4.33-12.82,35.29,35.29,0,0,0-8.21-10.23,40,40,0,0,0-11.25-6.73A35.16,35.16,0,0,0,245.3,193.91Zm12.13-13.59h-26.6v-9.41h26.6Z" transform="translate(-102.9 -168)"/><path class="cls-11" d="M385.66,230.79A44.64,44.64,0,0,1,382,249a45.75,45.75,0,0,1-10,14.57,48.61,48.61,0,0,1-14.66,9.77,46.18,46.18,0,0,1-38.91-1.48,47.79,47.79,0,0,1-15.67-13.37v35h-9.22v-62.7a45.71,45.71,0,0,1,46.1-46.1,44,44,0,0,1,17.7,3.6,48.66,48.66,0,0,1,14.66,9.77,45.53,45.53,0,0,1,10,14.66A44.85,44.85,0,0,1,385.66,230.79Zm-9.22,0a35.24,35.24,0,0,0-3-14.29,37.42,37.42,0,0,0-19.64-19.64,36.09,36.09,0,0,0-28.58,0,37.42,37.42,0,0,0-19.64,19.64,36.09,36.09,0,0,0,0,28.58,37.42,37.42,0,0,0,19.64,19.64,36.09,36.09,0,0,0,28.58,0,37.42,37.42,0,0,0,19.64-19.64A35.22,35.22,0,0,0,376.44,230.79Z" transform="translate(-102.9 -168)"/><path class="cls-11" d="M387.72,180.18V171h9.22v9.22Zm0,96.73V184.7h9.22v92.22Z" transform="translate(-102.9 -168)"/><path class="cls-11" d="M491.19,230.79A44.64,44.64,0,0,1,487.51,249a45.75,45.75,0,0,1-10,14.57,48.61,48.61,0,0,1-14.66,9.77,44,44,0,0,1-17.7,3.6,45.71,45.71,0,0,1-46.1-46.1V170.86h9.22v32.27h24.89v9.22H408.22v18.44a35.17,35.17,0,0,0,3,14.29,37.42,37.42,0,0,0,19.64,19.64,36.09,36.09,0,0,0,28.58,0A37.42,37.42,0,0,0,479,245.09a35.22,35.22,0,0,0,3-14.29Z" transform="translate(-102.9 -168)"/><path class="cls-11" d="M539.35,267.67a35.65,35.65,0,0,0,20.84-6.27,36.61,36.61,0,0,0,13.27-16.78h10.14a47.92,47.92,0,0,1-6.73,12.91,46.7,46.7,0,0,1-10.14,10.14,49.89,49.89,0,0,1-12.82,6.73,43.2,43.2,0,0,1-14.57,2.49,46.28,46.28,0,1,1,46.1-46.1v4.61h-83a39.53,39.53,0,0,0,4.33,12.91A35.61,35.61,0,0,0,515,258.45a40.22,40.22,0,0,0,11.16,6.73A34.93,34.93,0,0,0,539.35,267.67Zm0-73.76a34.93,34.93,0,0,0-13.18,2.49A40.3,40.3,0,0,0,515,203.13a35.24,35.24,0,0,0-8.21,10.23,40.52,40.52,0,0,0-4.33,12.82h73.76a40.6,40.6,0,0,0-4.33-12.82,35.29,35.29,0,0,0-8.21-10.23,40,40,0,0,0-11.25-6.73A35.16,35.16,0,0,0,539.35,193.91Z" transform="translate(-102.9 -168)"/></svg>